<?xml version="1.0" encoding="UTF-8"?>
<svg width="821px" height="207px" viewBox="0 0 821 207" version="1.1" xmlns="http://www.w3.org/2000/svg" xmlns:xlink="http://www.w3.org/1999/xlink">
    <g id="Page-1" stroke="none" stroke-width="1" fill="none" fill-rule="evenodd">
        <g id="Logo" transform="translate(0.000000, -17.000000)">
            <path d="M12.819426,114 L808.180574,114 C812.638168,114 814.254599,114.464128 815.884229,115.335664 C817.513858,116.207199 818.792801,117.486142 819.664336,119.115771 C820.535872,120.745401 821,122.361832 821,126.819426 L821,211.180574 C821,215.638168 820.535872,217.254599 819.664336,218.884229 C818.792801,220.513858 817.513858,221.792801 815.884229,222.664336 C814.254599,223.535872 812.638168,224 808.180574,224 L12.819426,224 C8.3618323,224 6.74540111,223.535872 5.11577148,222.664336 C3.48614185,221.792801 2.20719898,220.513858 1.33566352,218.884229 C0.464128056,217.254599 2.00617683e-16,215.638168 -3.45280103e-16,211.180574 L3.45280103e-16,126.819426 C-2.00617683e-16,122.361832 0.464128056,120.745401 1.33566352,119.115771 C2.20719898,117.486142 3.48614185,116.207199 5.11577148,115.335664 C6.74540111,114.464128 8.3618323,114 12.819426,114 Z" id="Rectangle" fill="#059669" fill-rule="nonzero"></path>
            <text id="Puente-Wedding-Fitne" font-family="SFPro-Bold, SF Pro" font-size="100" font-weight="bold" line-spacing="110" letter-spacing="0.5">
                <tspan x="0" y="95" fill="#000000">Puente Wedding</tspan>
                <tspan x="0" y="205" fill="#FFFFFF">Fitness Challenge</tspan>
            </text>
        </g>
    </g>
</svg>